Coordinates
version=1
nRows=10
nColumns=40
inDegrees=yes

Units are S.I. units (second, meters, Newtons, ...)
If the header above contains a line with 'inDegrees', this indicates whether rotational values are in degrees (yes) or radians (no).

endheader
time	pelvis_tilt	pelvis_list	pelvis_rotation	pelvis_tx	pelvis_ty	pelvis_tz	hip_flexion_r	hip_adduction_r	hip_rotation_r	knee_angle_r	knee_angle_r_beta	ankle_angle_r	subtalar_angle_r	mtp_angle_r	hip_flexion_l	hip_adduction_l	hip_rotation_l	knee_angle_l	knee_angle_l_beta	ankle_angle_l	subtalar_angle_l	mtp_angle_l	lumbar_extension	lumbar_bending	lumbar_rotation	arm_flex_r	arm_add_r	arm_rot_r	elbow_flex_r	pro_sup_r	wrist_flex_r	wrist_dev_r	arm_flex_l	arm_add_l	arm_rot_l	elbow_flex_l	pro_sup_l	wrist_flex_l	wrist_dev_l
      3.90000000	    -20.12957252	      2.38184738	      5.01224672	     -0.32226419	      0.86140816	     -0.98662337	     30.22219495	    -12.54425765	     -5.58935557	     89.07129730	      1.55458741	     -3.68461168	      0.00000000	      0.00000000	     59.30205097	      2.24573717	     -8.08692002	     71.44105057	      1.24688155	     20.02224881	      0.00000000	      0.00000000	      0.85438558	    -12.30450989	     -9.90412472	     89.93538627	     -4.01782877	     41.02206331	     43.88517910	     86.25746358	      0.00000000	      0.00000000	     89.95567720	    -13.70938478	     39.67263739	     51.58488539	     85.75076929	      0.00000000	      0.00000000
      3.90500000	    -20.14111614	      2.38000402	      4.98197151	     -0.32243594	      0.86115993	     -0.98642095	     30.26814272	    -12.45608917	     -5.51852493	     89.05963955	      1.55438394	     -3.64314334	      0.00000000	      0.00000000	     59.32530329	      2.23631546	     -8.03972164	     71.42719595	      1.24663974	     20.04523609	      0.00000000	      0.00000000	      0.84970917	    -12.29375819	     -9.90364529	     89.93601959	     -3.95625756	     41.58643620	     43.79552633	     82.11380414	      0.00000000	      0.00000000	     89.95545930	    -13.76027891	     39.96262003	     51.68236984	     81.57599926	      0.00000000	      0.00000000
      3.91000000	    -20.25241978	      2.42624316	      5.01548331	     -0.32269772	      0.86065195	     -0.98636269	     30.43342058	    -12.48415154	     -5.49001677	     89.11897127	      1.55541947	     -3.61888985	      0.00000000	      0.00000000	     59.50740301	      2.29281493	     -8.07628687	     71.51888380	      1.24824000	     20.04670938	      0.00000000	      0.00000000	      0.92268203	    -12.35323902	     -9.90938229	     89.93524765	     -4.04137886	     41.00483920	     43.99780841	     86.17630418	      0.00000000	      0.00000000	     89.95571277	    -13.71633974	     39.64534371	     51.60625612	     85.80924077	      0.00000000	      0.00000000
      3.91500000	    -20.23027967	      2.41342322	      5.06610678	     -0.32282630	      0.86041569	     -0.98627269	     30.41220197	    -12.44391023	     -5.52008134	     89.08964007	      1.55490755	     -3.65490741	      0.00000000	      0.00000000	     59.52908189	      2.28369795	     -8.08851254	     71.60374018	      1.24972102	     20.04207143	      0.00000000	      0.00000000	      0.86209598	    -12.33624287	     -9.92976285	     89.93523470	     -4.07381422	     40.97484315	     43.98823712	     86.20501904	      0.00000000	      0.00000000	     89.95565038	    -13.66379873	     39.52353602	     51.56261443	     85.85884568	      0.00000000	      0.00000000
      3.92000000	    -20.25644702	      2.37668234	      5.16485160	     -0.32304519	      0.85994119	     -0.98628825	     30.44099732	    -12.48614561	     -5.69977805	     89.16701769	      1.55625804	     -3.51104720	      0.00000000	      0.00000000	     59.65823388	      2.31242537	     -8.03930989	     71.76484423	      1.25253282	     19.93969891	      0.00000000	      0.00000000	      0.86110485	    -12.29579980	     -9.98552635	     89.93393485	     -3.98331109	     40.93243957	     43.92561649	     82.00337062	      0.00000000	      0.00000000	     89.95607782	    -13.51897528	     39.87469178	     51.33104580	     81.68234249	      0.00000000	      0.00000000
      3.92500000	    -20.25698208	      2.40011914	      5.10999280	     -0.32317441	      0.85992146	     -0.98621472	     30.48462086	    -12.35773326	     -5.49964347	     89.09162564	      1.55494220	     -3.70707509	      0.00000000	      0.00000000	     59.62134462	      2.35171215	     -7.95257148	     71.65331895	      1.25058634	     20.14196837	      0.00000000	      0.00000000	      0.82526080	    -12.30369681	     -9.97975824	     89.93501057	     -4.07416261	     40.92030657	     44.05914994	     86.18462503	      0.00000000	      0.00000000	     89.95559657	    -13.67353734	     39.50475502	     51.58671401	     85.88158512	      0.00000000	      0.00000000
      3.93000000	    -20.26504359	      2.43992434	      5.16016475	     -0.32330630	      0.85957307	     -0.98618954	     30.51252503	    -12.36167140	     -5.46343490	     89.12980128	      1.55560849	     -3.69700747	      0.00000000	      0.00000000	     59.66693581	      2.42457009	     -7.92124835	     71.70248282	      1.25144441	     20.08796281	      0.00000000	      0.00000000	      0.80078569	    -12.31783948	    -10.04980887	     89.93498787	     -4.01073577	     40.88203855	     44.02903527	     86.09877624	      0.00000000	      0.00000000	     89.95568506	    -13.74734966	     39.54622348	     51.62813459	     85.89604711	      0.00000000	      0.00000000
      3.93500000	    -20.28869433	      2.43155930	      5.21791559	     -0.32349234	      0.85926496	     -0.98615254	     30.55541567	    -12.34172213	     -5.50957477	     89.16083558	      1.55615014	     -3.63522693	      0.00000000	      0.00000000	     59.74152743	      2.44169128	     -7.94280579	     71.77323847	      1.25267933	     20.07190326	      0.00000000	      0.00000000	      0.78937957	    -12.31375263	    -10.05765751	     89.93487210	     -4.07131948	     40.87545620	     44.04719662	     86.10293665	      0.00000000	      0.00000000	     89.95560956	    -13.65982378	     39.47781418	     51.61300547	     85.96899426	      0.00000000	      0.00000000
      3.94000000	    -20.34350391	      2.44857953	      5.24359011	     -0.32369504	      0.85892490	     -0.98610066	     30.60200018	    -12.28923245	     -5.39959517	     89.11736885	      1.55539151	     -3.56630860	      0.00000000	      0.00000000	     59.84041464	      2.48344940	     -7.91943988	     71.81722681	      1.25344707	     20.08985088	      0.00000000	      0.00000000	      0.82133630	    -12.32980727	    -10.06575640	     89.93477685	     -4.10330642	     40.88554845	     44.09286388	     86.16040490	      0.00000000	      0.00000000	     89.95562499	    -13.62663265	     39.45578627	     51.55554380	     85.93492610	      0.00000000	      0.00000000
      3.94500000	    -20.35400343	      2.46685402	      5.28560734	     -0.32374774	      0.85860895	     -0.98608560	     30.62036063	    -12.28183306	     -5.40080903	     89.12645019	      1.55555001	     -3.55093682	      0.00000000	      0.00000000	     59.89122442	      2.54191761	     -7.89580086	     71.88423520	      1.25461658	     20.14640265	      0.00000000	      0.00000000	      0.80542116	    -12.33724934	    -10.10000423	     89.93491700	     -4.10942324	     40.85853382	     44.12760002	     86.14109894	      0.00000000	      0.00000000	     89.95559313	    -13.62737459	     39.46800014	     51.54250703	     85.94231712	      0.00000000	      0.00000000
